<svg width="990" height="225" viewBox="0 0 990 225" fill="none" xmlns="http://www.w3.org/2000/svg">
<path d="M896.912 224.708L916.188 180.306L869.408 61.9004H895.031L928.412 149.317H933.584C933.584 140.067 934.994 134.979 937.815 128.041L964.614 61.9004H989.297L922.065 224.708H896.912Z" fill="white"/>
<path d="M801.952 183.836C765.75 183.836 739.187 160.479 739.187 120.933C739.187 81.8501 765.515 58.0303 801.952 58.0303C837.448 58.0303 864.717 81.3876 864.717 120.933C864.717 160.016 838.154 183.836 801.952 183.836ZM801.952 162.791C823.344 162.791 840.974 147.066 840.974 120.933C840.974 94.5695 822.874 79.075 801.952 79.075C779.62 79.075 762.694 94.3382 762.694 120.933C762.694 147.066 778.914 162.791 801.952 162.791Z" fill="white"/>
<path d="M702.216 181.225V19.3428H725.253V181.225H702.216Z" fill="white"/>
<path d="M565.103 225.001V61.0367H588.141V83.2377H593.547C599.424 68.6683 612.588 58.0303 633.04 58.0303C665.246 58.0303 688.283 83.9315 688.283 121.164C688.283 159.091 664.775 183.836 633.275 183.836C613.764 183.836 599.894 174.586 593.547 158.629H588.141V225.001H565.103ZM626.223 163.023C647.615 163.023 664.775 148.222 664.775 120.933C664.775 94.5695 648.555 78.8438 626.223 78.8438C604.126 78.8438 588.846 94.5695 588.846 120.933C588.846 147.297 604.126 163.023 626.223 163.023Z" fill="white"/>
<path d="M497.103 183.836C462.546 183.836 437.158 158.86 437.158 121.396C437.158 83.9315 462.311 58.0303 496.868 58.0303C529.308 58.0303 551.17 81.6189 551.17 114.92V125.096H479.002C468.658 125.096 465.132 122.783 465.132 116.771H459.726V125.558C459.726 148.916 475.241 163.485 496.868 163.485C512.618 163.485 524.371 156.316 532.599 141.747L551.17 151.922C539.651 172.967 520.375 183.836 497.103 183.836ZM527.898 108.214C527.192 89.713 515.439 76.9937 496.162 76.9937C477.356 76.9937 463.252 88.788 460.431 108.214H527.898Z" fill="white"/>
<path d="M282.415 181.225V19.3428H340.244C383.498 19.3428 423.226 43.3939 423.226 99.8216C423.226 152.549 389.375 181.225 340.244 181.225H282.415ZM337.893 159.718C374.33 159.718 398.543 138.442 398.543 100.053C398.543 60.9697 372.919 40.85 337.893 40.85H306.158V159.718H337.893Z" fill="white"/>
<path fill-rule="evenodd" clip-rule="evenodd" d="M192.777 0C196.544 0 199.597 3.05341 199.597 6.81998V192.778C199.597 196.545 196.544 199.598 192.777 199.598H6.81996C3.0534 199.598 0 196.545 0 192.778V6.81998C0 3.05341 3.0534 0 6.81996 0H192.777ZM153.384 40.1158C152.302 39.115 150.491 39.3009 149.495 40.3726H149.485C122.569 69.5675 91.8683 99.4799 72.1357 133.343C65.6029 144.557 56.0375 180.404 72.7464 180.404H102.3C133.223 180.404 158.789 161.687 171.408 136.302C186.388 106.169 183.402 66.7806 153.384 40.1158ZM138.457 29.569C119.545 19.1436 96.6515 19.1998 73.4282 19.6212C56.394 19.9303 39.077 19.6212 23.5519 19.6212C21.2293 19.6212 19.3232 21.4453 19.3232 23.7654C19.3232 23.7654 19.3233 85.2498 19.3232 114.54C19.3233 116.989 22.3551 118.587 23.7116 119.021C35.6001 122.749 56.5758 107.952 66.1771 101.195C92.002 83.0066 109.937 66.1728 138.457 37.6857C141.746 34.4004 141.233 31.0992 138.457 29.569Z" fill="#474DEF"/>
</svg>
